<svg xmlns="http://www.w3.org/2000/svg" width="375" viewBox="0 0 375 375" height="375" version="1.0"><defs><clipPath id="a"><path d="M 112.5 160 L 262.5 160 L 262.5 304 L 112.5 304 Z M 112.5 160"/></clipPath><clipPath id="b"><path d="M 119 117 L 255 117 L 255 191.71875 L 119 191.71875 Z M 119 117"/></clipPath><clipPath id="c"><path d="M 112.5 68 L 262 68 L 262 128 L 112.5 128 Z M 112.5 68"/></clipPath><clipPath id="d"><path d="M 151 47.71875 L 166 47.71875 L 166 63 L 151 63 Z M 151 47.71875"/></clipPath></defs><path fill="#FFF" d="M-37.5 -37.5H412.5V412.5H-37.5z"/><path fill="#FFF" d="M-37.5 -37.5H412.5V412.5H-37.5z"/><path fill="#202060" d="M-37.5 -37.5H412.5V412.5H-37.5z"/><g clip-path="url(#a)"><path fill="#008037" d="M 215.40625 291.449219 C 209.824219 293.585938 204.195312 295.667969 198.171875 296.304688 C 196.042969 296.535156 195.484375 296.03125 195.582031 293.871094 C 195.679688 291.988281 195.890625 290.117188 196.089844 288.242188 C 196.714844 282.394531 196.453125 276.636719 194.414062 271.039062 C 191.175781 262.152344 185.613281 258.230469 175.019531 258.75 C 169.039062 259.046875 163.445312 260.929688 157.914062 263.03125 C 152.1875 265.214844 146.59375 267.769531 140.523438 269.011719 C 138.011719 269.53125 135.480469 269.761719 132.933594 269.949219 C 130.699219 270.113281 129.203125 269.15625 127.792969 267.570312 C 123.671875 262.988281 121.832031 257.394531 120.5 251.644531 C 118.496094 243.03125 117.4375 234.332031 118.351562 225.464844 C 118.527344 223.800781 119.125 223.128906 120.710938 222.886719 C 126.304688 222.039062 131.117188 224.066406 135.65625 226.851562 C 139.335938 229.109375 142.5625 231.960938 145.613281 234.992188 C 148.113281 237.46875 150.941406 239.472656 154.191406 240.9375 C 164.058594 245.390625 177.289062 237.007812 178.71875 228.902344 C 179.335938 225.386719 178.652344 222.015625 177.804688 218.667969 C 176.617188 214 174.554688 209.648438 172.574219 205.277344 C 171.496094 202.910156 170.402344 200.550781 169.675781 198.050781 C 168.609375 194.339844 169.445312 192.511719 172.960938 190.75 C 175.734375 189.359375 178.742188 188.921875 181.78125 188.777344 C 185.0625 188.625 188.355469 188.632812 191.628906 188.996094 C 193.554688 189.21875 195.484375 189.042969 197.34375 188.535156 C 203.300781 186.917969 206.605469 181.882812 205.78125 175.78125 C 205.449219 173.28125 204.832031 170.867188 203.535156 168.125 C 212.597656 170.351562 220.648438 173.546875 227.777344 178.632812 C 231.863281 181.550781 231.3125 189.273438 227.039062 191.949219 C 224.085938 193.8125 220.703125 194.492188 217.34375 195.210938 C 213.601562 196.003906 209.8125 196.574219 206.109375 197.589844 C 199.867188 199.296875 195.460938 203.226562 192.464844 208.703125 C 188.839844 215.289062 191.847656 223.691406 198.941406 227.347656 C 201.804688 228.824219 204.976562 229.386719 208.050781 230.210938 C 210.683594 230.917969 213.304688 231.632812 215.671875 233 C 218.492188 234.605469 218.886719 235.664062 217.699219 238.605469 C 216.058594 242.691406 214.371094 246.730469 213.808594 251.171875 C 212.398438 262.460938 220.945312 274.972656 232.191406 277.835938 C 232.820312 277.988281 233.46875 278.011719 234.019531 278.53125 C 228.886719 284.34375 222.675781 288.664062 215.40625 291.449219 Z M 258.304688 211.773438 C 252.378906 191.949219 239.890625 177.34375 221.023438 168.5 C 204.171875 160.59375 186.1875 158.675781 167.792969 161.859375 C 157.769531 163.601562 148.882812 168.027344 141.050781 174.449219 C 132.945312 181.101562 127.097656 189.527344 121.679688 198.292969 C 115.621094 208.097656 112.921875 218.800781 112.636719 230.144531 C 112.480469 236.125 113.519531 242.019531 114.433594 247.921875 C 116.449219 260.894531 122.613281 271.710938 132.011719 280.851562 C 133.992188 282.792969 136.164062 284.542969 138.242188 286.394531 C 146.582031 293.792969 156.417969 298.5625 167.011719 301.878906 C 173.003906 303.761719 179.28125 303.9375 185.648438 303.925781 C 193.136719 304.355469 200.4375 302.738281 207.542969 300.4375 C 213.589844 298.476562 219.117188 295.324219 224.746094 292.441406 C 233.84375 287.78125 241.082031 280.886719 247.136719 273.089844 C 253.371094 265.105469 259.21875 256.644531 260.519531 246.125 C 261.160156 240.984375 262.414062 235.90625 262.039062 230.683594 C 261.578125 224.242188 260.15625 217.964844 258.304688 211.773438"/></g><path fill="#FFDE59" d="M 166.238281 84.804688 C 165.941406 84.804688 165.636719 84.726562 165.359375 84.566406 C 164.519531 84.078125 164.226562 83.015625 164.710938 82.179688 C 165.464844 80.855469 167.585938 79.484375 168.210938 79.09375 C 169.050781 78.582031 170.132812 78.839844 170.648438 79.667969 C 171.160156 80.496094 170.902344 81.589844 170.070312 82.105469 C 169.078125 82.71875 167.984375 83.59375 167.777344 83.933594 C 167.445312 84.492188 166.847656 84.804688 166.238281 84.804688"/><g clip-path="url(#b)"><path fill="#FFDE59" d="M 254.449219 189.109375 C 251.8125 183.304688 248.71875 181.199219 245.984375 179.34375 C 243.410156 177.589844 240.972656 175.9375 238.753906 171.042969 C 236.515625 166.109375 236.773438 162.921875 237.042969 159.542969 C 237.339844 155.867188 237.644531 152.066406 235.027344 146.300781 C 232.492188 140.707031 229.648438 137.496094 226.898438 134.394531 C 224.234375 131.394531 221.71875 128.542969 219.425781 123.554688 C 217.984375 117.921875 194.414062 117.472656 187.027344 117.472656 C 179.644531 117.472656 156.074219 117.921875 154.632812 123.554688 C 152.335938 128.542969 149.820312 131.394531 147.160156 134.394531 C 144.410156 137.496094 141.566406 140.707031 139.03125 146.300781 C 136.414062 152.066406 136.71875 155.867188 137.011719 159.542969 C 137.285156 162.921875 137.542969 166.109375 135.300781 171.042969 C 133.082031 175.9375 130.648438 177.589844 128.070312 179.34375 C 125.339844 181.199219 122.242188 183.304688 119.609375 189.109375 C 119.207031 189.996094 119.597656 191.042969 120.488281 191.449219 C 120.726562 191.554688 120.976562 191.605469 121.222656 191.605469 C 121.894531 191.605469 122.539062 191.222656 122.832031 190.566406 C 125.054688 185.671875 127.484375 184.019531 130.0625 182.265625 C 132.792969 180.410156 135.890625 178.304688 138.523438 172.5 C 141.140625 166.734375 140.835938 162.933594 140.539062 159.261719 C 140.269531 155.886719 140.011719 152.699219 142.25 147.765625 C 144.566406 142.65625 147.113281 139.78125 149.808594 136.742188 C 152.558594 133.636719 155.40625 130.429688 157.941406 124.839844 C 157.992188 124.722656 158.03125 124.613281 158.054688 124.492188 C 159.75 123.03125 170.71875 121.011719 187.027344 121.011719 C 203.339844 121.011719 214.308594 123.03125 216.003906 124.492188 C 216.027344 124.613281 216.0625 124.722656 216.113281 124.839844 C 218.652344 130.429688 221.5 133.636719 224.25 136.742188 C 226.941406 139.78125 229.492188 142.65625 231.808594 147.765625 C 234.046875 152.699219 233.789062 155.886719 233.515625 159.261719 C 233.222656 162.933594 232.917969 166.734375 235.535156 172.5 C 238.164062 178.304688 241.265625 180.410156 243.996094 182.265625 C 246.570312 184.019531 249.003906 185.671875 251.222656 190.566406 C 251.519531 191.222656 252.164062 191.605469 252.835938 191.605469 C 253.078125 191.605469 253.328125 191.554688 253.566406 191.449219 C 254.457031 191.042969 254.847656 189.996094 254.449219 189.109375"/></g><path fill="#FFDE59" d="M 209.425781 174.34375 C 209.425781 175.15625 208.765625 175.8125 207.957031 175.8125 C 207.144531 175.8125 206.484375 175.15625 206.484375 174.34375 C 206.484375 173.535156 207.144531 172.875 207.957031 172.875 C 208.765625 172.875 209.425781 173.535156 209.425781 174.34375"/><path fill="#FFDE59" d="M 178.945312 163.550781 C 178.945312 164.183594 178.433594 164.695312 177.800781 164.695312 C 177.171875 164.695312 176.660156 164.183594 176.660156 163.550781 C 176.660156 162.921875 177.171875 162.410156 177.800781 162.410156 C 178.433594 162.410156 178.945312 162.921875 178.945312 163.550781"/><path fill="#FFDE59" d="M 186.640625 149.199219 C 186.640625 150.011719 185.988281 150.667969 185.171875 150.667969 C 184.359375 150.667969 183.703125 150.011719 183.703125 149.199219 C 183.703125 148.386719 184.359375 147.726562 185.171875 147.726562 C 185.988281 147.726562 186.640625 148.386719 186.640625 149.199219"/><path fill="#FFDE59" d="M 177.984375 134.636719 C 177.984375 135.199219 177.53125 135.660156 176.96875 135.660156 C 176.40625 135.660156 175.949219 135.199219 175.949219 134.636719 C 175.949219 134.074219 176.40625 133.617188 176.96875 133.617188 C 177.53125 133.617188 177.984375 134.074219 177.984375 134.636719"/><path fill="#FFDE59" d="M 186.640625 182.460938 C 186.640625 183.269531 185.988281 183.929688 185.171875 183.929688 C 184.359375 183.929688 183.703125 183.269531 183.703125 182.460938 C 183.703125 181.648438 184.359375 180.992188 185.171875 180.992188 C 185.988281 180.992188 186.640625 181.648438 186.640625 182.460938"/><path fill="#FFDE59" d="M 198.175781 134.636719 C 198.175781 135.414062 197.542969 136.046875 196.765625 136.046875 C 195.988281 136.046875 195.359375 135.414062 195.359375 134.636719 C 195.359375 133.859375 195.988281 133.230469 196.765625 133.230469 C 197.542969 133.230469 198.175781 133.859375 198.175781 134.636719"/><path fill="#FFDE59" d="M 203.132812 150.804688 L 203.785156 151.992188 C 203.835938 152.085938 203.914062 152.164062 204.007812 152.214844 L 205.195312 152.863281 C 205.585938 153.082031 205.585938 153.644531 205.195312 153.855469 L 204.007812 154.503906 C 203.914062 154.554688 203.835938 154.632812 203.785156 154.726562 L 203.132812 155.914062 C 202.921875 156.304688 202.363281 156.304688 202.148438 155.914062 L 201.496094 154.726562 C 201.445312 154.632812 201.367188 154.554688 201.269531 154.503906 L 200.082031 153.855469 C 199.691406 153.644531 199.691406 153.082031 200.082031 152.863281 L 201.269531 152.214844 C 201.367188 152.164062 201.445312 152.085938 201.496094 151.992188 L 202.148438 150.804688 C 202.363281 150.414062 202.921875 150.414062 203.132812 150.804688"/><path fill="#FFDE59" d="M 162.757812 167.960938 L 163.207031 168.78125 C 163.246094 168.84375 163.296875 168.898438 163.359375 168.929688 L 164.179688 169.382812 C 164.453125 169.53125 164.453125 169.917969 164.179688 170.066406 L 163.359375 170.511719 C 163.296875 170.546875 163.246094 170.605469 163.207031 170.667969 L 162.757812 171.488281 C 162.609375 171.761719 162.222656 171.761719 162.074219 171.488281 L 161.628906 170.667969 C 161.589844 170.605469 161.539062 170.546875 161.472656 170.511719 L 160.652344 170.066406 C 160.382812 169.917969 160.382812 169.53125 160.652344 169.382812 L 161.472656 168.929688 C 161.539062 168.898438 161.589844 168.84375 161.628906 168.78125 L 162.074219 167.960938 C 162.222656 167.691406 162.609375 167.691406 162.757812 167.960938"/><g clip-path="url(#c)"><path fill="#FFDE59" d="M 117.21875 105.140625 C 121.738281 101.105469 132.636719 92.960938 156.515625 90.4375 C 176.765625 88.296875 197.296875 88.296875 217.535156 90.4375 C 241.40625 92.960938 252.3125 101.101562 256.828125 105.136719 C 211.046875 98.898438 164.097656 98.90625 117.21875 105.140625 Z M 187.027344 72.367188 C 199.976562 72.367188 211.101562 79.355469 214.957031 86.648438 C 196.402344 84.878906 177.640625 84.878906 159.089844 86.648438 C 162.945312 79.355469 174.078125 72.367188 187.027344 72.367188 Z M 260.640625 103.839844 C 257.03125 100.433594 246.152344 90.160156 219.019531 87.046875 C 215.632812 78.074219 202.910156 68.828125 187.027344 68.828125 C 171.144531 68.828125 158.421875 78.074219 155.035156 87.046875 C 127.90625 90.160156 117.023438 100.433594 113.417969 103.839844 C 112.625 104.589844 112.460938 105.394531 112.460938 105.9375 C 112.464844 107.191406 113.296875 108.144531 114.03125 108.839844 C 121.496094 117.257812 136.050781 123.9375 155.03125 127.65625 C 155.148438 127.679688 155.261719 127.691406 155.371094 127.691406 C 156.203125 127.691406 156.945312 127.109375 157.109375 126.261719 C 157.292969 125.304688 156.671875 124.375 155.714844 124.1875 C 139.089844 120.929688 126.117188 115.410156 118.6875 108.523438 C 164.585938 102.496094 210.539062 102.496094 255.382812 108.515625 C 247.949219 115.398438 235.003906 120.914062 218.421875 124.175781 C 217.464844 124.363281 216.835938 125.296875 217.023438 126.253906 C 217.191406 127.097656 217.933594 127.679688 218.757812 127.679688 C 218.871094 127.679688 218.988281 127.671875 219.101562 127.648438 C 238.128906 123.902344 252.703125 117.183594 260.140625 108.722656 C 260.1875 108.671875 260.472656 108.273438 260.472656 108.273438 C 261.011719 107.53125 262.449219 105.546875 260.640625 103.839844"/></g><path fill="#FFDE59" d="M 208.265625 132.6875 C 207.652344 132.6875 207.050781 132.371094 206.730469 131.792969 C 205.730469 130.046875 204.574219 128.988281 203.28125 127.878906 C 202.539062 127.242188 202.449219 126.125 203.085938 125.382812 C 203.722656 124.640625 204.835938 124.554688 205.578125 125.195312 C 207.074219 126.472656 208.523438 127.804688 209.796875 130.039062 C 210.28125 130.890625 209.988281 131.96875 209.140625 132.453125 C 208.863281 132.613281 208.5625 132.6875 208.265625 132.6875 Z M 209.660156 144 C 209.582031 144 209.503906 143.996094 209.421875 143.988281 C 208.453125 143.859375 207.777344 142.96875 207.898438 142.003906 C 207.96875 141.492188 208.054688 141 208.144531 140.5 C 208.308594 139.539062 208.464844 138.636719 208.464844 137.648438 C 208.464844 137.324219 208.449219 136.980469 208.40625 136.621094 C 208.296875 135.648438 208.992188 134.773438 209.964844 134.660156 C 210.9375 134.554688 211.8125 135.246094 211.921875 136.214844 C 211.976562 136.695312 212.003906 137.164062 212.003906 137.648438 C 212.003906 138.9375 211.8125 140.039062 211.625 141.105469 C 211.546875 141.554688 211.46875 142.007812 211.410156 142.46875 C 211.289062 143.355469 210.53125 144 209.660156 144 Z M 213.28125 154.730469 C 212.832031 154.730469 212.382812 154.558594 212.042969 154.21875 C 210.714844 152.910156 209.714844 151.367188 208.898438 149.363281 C 208.792969 149.097656 208.691406 148.839844 208.605469 148.585938 C 208.28125 147.664062 208.769531 146.65625 209.691406 146.328125 C 210.613281 146.011719 211.621094 146.492188 211.945312 147.414062 C 212.019531 147.617188 212.097656 147.820312 212.179688 148.03125 C 212.804688 149.574219 213.550781 150.742188 214.523438 151.699219 C 215.21875 152.390625 215.222656 153.507812 214.542969 154.199219 C 214.191406 154.554688 213.738281 154.730469 213.28125 154.730469 Z M 220.847656 163.359375 C 220.125 163.359375 219.445312 162.90625 219.1875 162.183594 C 219.117188 161.988281 219.039062 161.796875 218.960938 161.59375 C 218.324219 160.035156 217.574219 158.863281 216.59375 157.898438 C 215.890625 157.210938 215.882812 156.09375 216.566406 155.398438 C 217.25 154.703125 218.371094 154.6875 219.066406 155.371094 C 220.40625 156.6875 221.414062 158.238281 222.234375 160.261719 C 222.335938 160.507812 222.429688 160.75 222.515625 160.988281 C 222.84375 161.910156 222.363281 162.925781 221.441406 163.25 C 221.25 163.320312 221.046875 163.359375 220.847656 163.359375 Z M 220.964844 174.933594 C 220.074219 174.933594 219.308594 174.265625 219.207031 173.359375 C 219.152344 172.878906 219.128906 172.417969 219.128906 171.976562 C 219.128906 170.6875 219.324219 169.582031 219.507812 168.511719 C 219.589844 168.050781 219.667969 167.589844 219.734375 167.121094 C 219.859375 166.152344 220.746094 165.46875 221.714844 165.597656 C 222.683594 165.722656 223.367188 166.609375 223.238281 167.578125 C 223.175781 168.101562 223.082031 168.609375 222.996094 169.121094 C 222.828125 170.082031 222.667969 170.992188 222.667969 171.976562 C 222.667969 172.292969 222.6875 172.621094 222.726562 172.972656 C 222.835938 173.9375 222.132812 174.8125 221.160156 174.925781 C 221.097656 174.929688 221.03125 174.933594 220.964844 174.933594 Z M 226.722656 184.792969 C 226.320312 184.792969 225.921875 184.65625 225.589844 184.386719 C 224.078125 183.125 222.613281 181.804688 221.324219 179.542969 C 220.835938 178.695312 221.128906 177.621094 221.976562 177.136719 C 222.824219 176.652344 223.90625 176.941406 224.390625 177.789062 C 225.390625 179.539062 226.550781 180.582031 227.855469 181.667969 C 228.605469 182.289062 228.707031 183.40625 228.082031 184.15625 C 227.730469 184.578125 227.230469 184.792969 226.722656 184.792969"/><path fill="#FFDE59" d="M 200.355469 124.019531 C 199.773438 124.019531 199.203125 123.734375 198.867188 123.207031 C 198.484375 122.613281 198.140625 121.992188 197.824219 121.324219 C 197.207031 121.289062 196.589844 121.253906 195.980469 121.226562 C 195.003906 121.175781 194.25 120.351562 194.296875 119.375 C 194.34375 118.398438 195.183594 117.652344 196.148438 117.695312 C 197.140625 117.742188 198.128906 117.796875 199.125 117.859375 C 199.800781 117.90625 200.390625 118.328125 200.648438 118.960938 C 201 119.828125 201.390625 120.589844 201.84375 121.296875 C 202.371094 122.117188 202.132812 123.210938 201.308594 123.742188 C 201.011719 123.925781 200.683594 124.019531 200.355469 124.019531"/><path fill="#FFDE59" d="M 173.703125 124.019531 C 173.371094 124.019531 173.042969 123.925781 172.75 123.742188 C 171.921875 123.210938 171.683594 122.117188 172.214844 121.296875 C 172.664062 120.589844 173.058594 119.828125 173.40625 118.960938 C 173.664062 118.328125 174.253906 117.90625 174.933594 117.859375 C 175.925781 117.796875 176.917969 117.742188 177.90625 117.695312 C 178.875 117.652344 179.714844 118.398438 179.757812 119.375 C 179.804688 120.351562 179.054688 121.175781 178.078125 121.226562 C 177.464844 121.253906 176.847656 121.289062 176.230469 121.324219 C 175.917969 121.992188 175.570312 122.613281 175.191406 123.207031 C 174.851562 123.734375 174.28125 124.019531 173.703125 124.019531"/><path fill="#FFDE59" d="M 165.828125 132.625 C 165.53125 132.625 165.226562 132.550781 164.945312 132.382812 C 164.097656 131.894531 163.8125 130.816406 164.300781 129.96875 C 165.570312 127.769531 167.03125 126.433594 168.539062 125.144531 C 169.28125 124.507812 170.394531 124.59375 171.03125 125.335938 C 171.664062 126.078125 171.578125 127.199219 170.835938 127.828125 C 169.476562 128.992188 168.359375 130.019531 167.363281 131.738281 C 167.035156 132.304688 166.441406 132.625 165.828125 132.625 Z M 164.386719 143.933594 C 163.523438 143.933594 162.761719 143.289062 162.640625 142.402344 C 162.582031 141.964844 162.503906 141.539062 162.429688 141.113281 C 162.246094 140.042969 162.050781 138.9375 162.050781 137.648438 C 162.050781 137.136719 162.085938 136.640625 162.144531 136.132812 C 162.265625 135.167969 163.152344 134.484375 164.117188 134.589844 C 165.082031 134.710938 165.773438 135.59375 165.660156 136.5625 C 165.613281 136.925781 165.589844 137.28125 165.589844 137.648438 C 165.589844 138.636719 165.75 139.542969 165.917969 140.503906 C 165.996094 140.976562 166.078125 141.445312 166.144531 141.925781 C 166.277344 142.890625 165.597656 143.785156 164.632812 143.917969 C 164.550781 143.929688 164.46875 143.933594 164.386719 143.933594 Z M 160.828125 154.679688 C 160.375 154.679688 159.917969 154.503906 159.574219 154.160156 C 158.886719 153.46875 158.886719 152.347656 159.578125 151.65625 C 160.527344 150.707031 161.261719 149.558594 161.878906 148.03125 C 161.96875 147.800781 162.058594 147.570312 162.136719 147.347656 C 162.457031 146.425781 163.472656 145.941406 164.390625 146.261719 C 165.3125 146.589844 165.796875 147.597656 165.476562 148.519531 C 165.378906 148.792969 165.273438 149.070312 165.160156 149.355469 C 164.355469 151.339844 163.375 152.863281 162.074219 154.164062 C 161.730469 154.503906 161.277344 154.679688 160.828125 154.679688 Z M 153.234375 163.289062 C 153.03125 163.289062 152.832031 163.257812 152.632812 163.183594 C 151.710938 162.847656 151.238281 161.832031 151.566406 160.917969 C 151.644531 160.699219 151.734375 160.484375 151.820312 160.261719 C 152.652344 158.210938 153.679688 156.640625 155.050781 155.316406 C 155.75 154.632812 156.875 154.652344 157.550781 155.355469 C 158.234375 156.058594 158.214844 157.175781 157.511719 157.859375 C 156.507812 158.828125 155.742188 160.019531 155.101562 161.59375 C 155.027344 161.773438 154.957031 161.949219 154.898438 162.125 C 154.636719 162.84375 153.957031 163.289062 153.234375 163.289062 Z M 153.097656 174.859375 C 153.039062 174.859375 152.972656 174.859375 152.914062 174.851562 C 151.941406 174.75 151.238281 173.882812 151.335938 172.90625 C 151.371094 172.585938 151.382812 172.277344 151.382812 171.976562 C 151.382812 170.992188 151.226562 170.085938 151.0625 169.125 C 150.964844 168.585938 150.871094 168.050781 150.804688 167.5 C 150.683594 166.53125 151.371094 165.648438 152.335938 165.523438 C 153.304688 165.40625 154.195312 166.089844 154.3125 167.058594 C 154.378906 167.554688 154.460938 168.039062 154.542969 168.515625 C 154.726562 169.585938 154.921875 170.6875 154.921875 171.976562 C 154.921875 172.394531 154.902344 172.824219 154.855469 173.277344 C 154.761719 174.183594 153.992188 174.859375 153.097656 174.859375 Z M 147.394531 184.746094 C 146.886719 184.746094 146.386719 184.527344 146.035156 184.109375 C 145.410156 183.359375 145.507812 182.246094 146.257812 181.617188 C 147.546875 180.542969 148.695312 179.507812 149.699219 177.734375 C 150.175781 176.886719 151.253906 176.585938 152.105469 177.066406 C 152.953125 177.550781 153.257812 178.628906 152.773438 179.480469 C 151.484375 181.765625 149.96875 183.128906 148.523438 184.335938 C 148.195312 184.613281 147.789062 184.746094 147.394531 184.746094"/><g clip-path="url(#d)"><path fill="#FFDE59" d="M 158.691406 51.339844 C 156.65625 51.339844 155.003906 52.992188 155.003906 55.023438 C 155.003906 57.050781 156.65625 58.710938 158.691406 58.710938 C 160.722656 58.710938 162.375 57.050781 162.375 55.023438 C 162.375 52.992188 160.722656 51.339844 158.691406 51.339844 Z M 158.691406 62.246094 C 154.703125 62.246094 151.464844 59.003906 151.464844 55.023438 C 151.464844 51.039062 154.703125 47.800781 158.691406 47.800781 C 162.667969 47.800781 165.914062 51.039062 165.914062 55.023438 C 165.914062 59.003906 162.667969 62.246094 158.691406 62.246094"/></g><path fill="#FFDE59" d="M 240.351562 71.082031 C 239.089844 71.082031 238.066406 72.109375 238.066406 73.367188 C 238.066406 74.625 239.089844 75.652344 240.351562 75.652344 C 241.609375 75.652344 242.636719 74.625 242.636719 73.367188 C 242.636719 72.109375 241.609375 71.082031 240.351562 71.082031 Z M 240.351562 79.1875 C 237.140625 79.1875 234.53125 76.578125 234.53125 73.367188 C 234.53125 70.15625 237.140625 67.542969 240.351562 67.542969 C 243.5625 67.542969 246.175781 70.15625 246.175781 73.367188 C 246.175781 76.578125 243.5625 79.1875 240.351562 79.1875"/><path fill="#FFDE59" d="M 207.683594 52.882812 C 206.734375 52.882812 205.960938 53.652344 205.960938 54.605469 C 205.960938 55.554688 206.734375 56.328125 207.683594 56.328125 C 208.636719 56.328125 209.40625 55.554688 209.40625 54.605469 C 209.40625 53.652344 208.636719 52.882812 207.683594 52.882812 Z M 207.683594 59.867188 C 204.78125 59.867188 202.421875 57.503906 202.421875 54.605469 C 202.421875 51.703125 204.78125 49.34375 207.683594 49.34375 C 210.585938 49.34375 212.945312 51.703125 212.945312 54.605469 C 212.945312 57.503906 210.585938 59.867188 207.683594 59.867188"/><path fill="#FFDE59" d="M 134.03125 74.675781 C 133.257812 74.675781 132.625 75.304688 132.625 76.078125 C 132.625 76.855469 133.257812 77.484375 134.03125 77.484375 C 134.804688 77.484375 135.4375 76.855469 135.4375 76.078125 C 135.4375 75.304688 134.804688 74.675781 134.03125 74.675781 Z M 134.03125 81.023438 C 131.304688 81.023438 129.089844 78.800781 129.089844 76.078125 C 129.089844 73.351562 131.304688 71.136719 134.03125 71.136719 C 136.757812 71.136719 138.972656 73.351562 138.972656 76.078125 C 138.972656 78.800781 136.757812 81.023438 134.03125 81.023438"/><g fill="#FFF"><g><g><path d="M 39.3125 0 L 28.765625 0 C 28.273438 -0.664062 27.929688 -1.519531 27.734375 -2.5625 C 27.566406 -3.363281 27.304688 -4.148438 26.953125 -4.921875 C 26.609375 -5.703125 26.015625 -6.347656 25.171875 -6.859375 C 24.328125 -7.367188 23.066406 -7.644531 21.390625 -7.6875 L 14.140625 -7.6875 L 14.140625 0 L 2.96875 0 L 2.96875 -26.625 L 21.140625 -26.625 C 25.472656 -26.625 28.972656 -26.296875 31.640625 -25.640625 C 34.304688 -24.992188 36.25 -23.972656 37.46875 -22.578125 C 38.695312 -21.191406 39.3125 -19.378906 39.3125 -17.140625 C 39.3125 -15.273438 38.890625 -13.703125 38.046875 -12.421875 C 37.203125 -11.148438 35.863281 -10.144531 34.03125 -9.40625 C 35.800781 -8.675781 36.945312 -7.800781 37.46875 -6.78125 C 38 -5.757812 38.328125 -4.640625 38.453125 -3.421875 C 38.566406 -2.328125 38.851562 -1.1875 39.3125 0 Z M 14.140625 -14.25 L 20.515625 -14.265625 C 22.296875 -14.265625 23.703125 -14.34375 24.734375 -14.5 C 25.765625 -14.664062 26.519531 -14.890625 27 -15.171875 C 27.488281 -15.453125 27.800781 -15.757812 27.9375 -16.09375 C 28.070312 -16.4375 28.140625 -16.785156 28.140625 -17.140625 C 28.140625 -17.503906 28.070312 -17.859375 27.9375 -18.203125 C 27.800781 -18.546875 27.488281 -18.859375 27 -19.140625 C 26.519531 -19.421875 25.765625 -19.640625 24.734375 -19.796875 C 23.703125 -19.960938 22.296875 -20.046875 20.515625 -20.046875 L 14.140625 -20.046875 Z M 14.140625 -14.25" transform="translate(83.262 294.561)"/></g></g></g><g fill="#FFF"><g><g><path d="M 44.71875 0 L 33.40625 0 L 30.890625 -4.359375 L 14.109375 -4.359375 L 11.59375 0 L 0.28125 0 L 17.3125 -26.609375 L 27.6875 -26.609375 Z M 27.125 -10.953125 L 22.5 -19.015625 L 17.875 -10.953125 Z M 27.125 -10.953125" transform="translate(124.055 294.561)"/></g></g></g><g fill="#FFF"><g><g><path d="M 25.5625 0 L 15.203125 0 L 0.28125 -26.609375 L 11.59375 -26.609375 L 20.390625 -7.59375 L 29.171875 -26.609375 L 40.484375 -26.609375 Z M 25.5625 0" transform="translate(169.04 294.561)"/></g></g></g><g fill="#FFF"><g><g><path d="M 35.03125 0 L 2.96875 0 L 2.96875 -26.625 L 33.5625 -26.625 L 33.5625 -20.046875 L 14.140625 -20.046875 L 14.140625 -15.859375 L 30.5625 -15.859375 L 30.5625 -10.75 L 14.140625 -10.75 L 14.140625 -6.59375 L 35.03125 -6.59375 Z M 35.03125 0" transform="translate(209.797 294.561)"/></g></g></g><g fill="#FFF"><g><g><path d="M 42.46875 0 L 29.1875 0 L 14.140625 -18.015625 L 14.140625 0 L 2.96875 0 L 2.96875 -26.625 L 16.25 -26.625 L 31.296875 -8.703125 L 31.296875 -26.625 L 42.46875 -26.625 Z M 42.46875 0" transform="translate(246.305 294.561)"/></g></g></g><g fill="#FFF"><g><g><path d="M 9.359375 0.28125 C 6.109375 0.28125 3.820312 -0.390625 2.5 -1.734375 C 1.382812 -2.867188 0.828125 -4.503906 0.828125 -6.640625 L 0.828125 -13.296875 L 6.421875 -13.296875 L 6.421875 -6.640625 C 6.421875 -5.710938 6.578125 -4.976562 6.890625 -4.4375 C 7.347656 -3.664062 8.171875 -3.28125 9.359375 -3.28125 C 10.566406 -3.28125 11.394531 -3.664062 11.84375 -4.4375 C 12.15625 -5 12.3125 -5.734375 12.3125 -6.640625 L 12.3125 -13.296875 L 17.890625 -13.296875 L 17.890625 -6.5625 C 17.890625 -4.476562 17.335938 -2.867188 16.234375 -1.734375 C 14.898438 -0.390625 12.609375 0.28125 9.359375 0.28125 Z M 9.359375 0.28125" transform="translate(159.307 318.065)"/></g></g></g><g fill="#FFF"><g><g><path d="M 7.0625 0 L 1.484375 0 L 1.484375 -13.3125 L 16.78125 -13.3125 L 16.78125 -10.015625 L 7.0625 -10.015625 L 7.0625 -7.9375 L 15.28125 -7.9375 L 15.28125 -5.375 L 7.0625 -5.375 Z M 7.0625 0" transform="translate(178.035 318.065)"/></g></g></g><g fill="#FFF"><g><g><path d="M 10.0625 0.28125 C 6.769531 0.28125 4.347656 -0.394531 2.796875 -1.75 C 1.429688 -2.945312 0.75 -4.582031 0.75 -6.65625 C 0.75 -8.71875 1.429688 -10.347656 2.796875 -11.546875 C 4.347656 -12.898438 6.769531 -13.578125 10.0625 -13.578125 C 13.351562 -13.578125 15.773438 -12.898438 17.328125 -11.546875 C 18.703125 -10.347656 19.390625 -8.71875 19.390625 -6.65625 C 19.390625 -4.582031 18.703125 -2.945312 17.328125 -1.75 C 15.773438 -0.394531 13.351562 0.28125 10.0625 0.28125 Z M 10.0625 -3.28125 C 11.414062 -3.28125 12.40625 -3.664062 13.03125 -4.4375 C 13.539062 -5.0625 13.796875 -5.800781 13.796875 -6.65625 C 13.796875 -7.5 13.539062 -8.226562 13.03125 -8.84375 C 12.40625 -9.625 11.414062 -10.015625 10.0625 -10.015625 C 8.71875 -10.015625 7.726562 -9.625 7.09375 -8.84375 C 6.582031 -8.226562 6.328125 -7.5 6.328125 -6.65625 C 6.328125 -5.800781 6.582031 -5.0625 7.09375 -4.4375 C 7.726562 -3.664062 8.71875 -3.28125 10.0625 -3.28125 Z M 10.0625 -3.28125" transform="translate(195.556 318.065)"/></g></g></g></svg>